<svg width="494" height="93" viewBox="0 0 494 93" fill="none" xmlns="http://www.w3.org/2000/svg">
<g clip-path="url(#clip0_666_3046)">
<path d="M164.658 46.6113C164.658 48.9146 164.373 51.1007 163.79 53.1697C163.206 55.2387 162.377 57.1776 161.301 58.9603C160.226 60.7561 158.93 62.3697 157.427 63.8271C155.923 65.2845 154.265 66.5207 152.437 67.5357C150.61 68.5507 148.64 69.3444 146.528 69.891C144.416 70.4375 142.226 70.7238 139.958 70.7238H123.966C123.578 70.7238 123.228 70.6327 122.93 70.4635C122.632 70.2944 122.476 69.917 122.476 69.3575V23.9043C122.476 23.4488 122.606 23.0845 122.852 22.7982C123.098 22.5119 123.474 22.3688 123.966 22.3688H139.945C142.213 22.3688 144.403 22.6551 146.502 23.2146C148.602 23.7741 150.571 24.5809 152.399 25.6219C154.226 26.6629 155.898 27.9122 157.401 29.3696C158.917 30.827 160.2 32.4536 161.276 34.2493C162.351 36.0451 163.181 37.997 163.764 40.079C164.36 42.161 164.658 44.3341 164.658 46.6113ZM135.02 34.0541V59.0775H137.742C138.234 59.0775 138.727 59.0644 139.206 59.0254C139.686 58.9864 140.152 58.9603 140.632 58.9083C142.252 58.7782 143.768 58.3878 145.167 57.7241C146.567 57.0605 147.798 56.2017 148.848 55.1216C149.897 54.0416 150.714 52.7793 151.31 51.3349C151.906 49.8775 152.204 48.303 152.204 46.5853C152.204 44.7635 151.867 43.0849 151.18 41.5624C150.494 40.0269 149.574 38.7127 148.407 37.5936C147.241 36.4745 145.88 35.6157 144.312 34.991C142.744 34.3794 141.072 34.0671 139.31 34.0671H135.02V34.0541Z" fill="#1E1D29"/>
<path d="M166.641 50.0987C166.641 48.1078 166.9 46.1819 167.405 44.3341C167.911 42.4863 168.623 40.7816 169.543 39.2071C170.464 37.6326 171.565 36.2012 172.848 34.9129C174.131 33.6247 175.569 32.5186 177.137 31.6077C178.718 30.6968 180.416 29.9942 182.243 29.4867C184.071 28.9922 185.976 28.7319 187.958 28.7319C190.9 28.7319 193.66 29.2785 196.239 30.3715C198.818 31.4646 201.073 32.9741 202.978 34.8869C204.883 36.7998 206.399 39.064 207.514 41.6535C208.628 44.243 209.185 47.0537 209.185 50.0597C209.185 52.0506 208.926 53.9635 208.421 55.7982C207.915 57.633 207.203 59.3377 206.282 60.9252C205.362 62.5128 204.261 63.9442 202.978 65.2324C201.695 66.5207 200.256 67.6267 198.688 68.5506C197.107 69.4745 195.423 70.1772 193.621 70.6847C191.82 71.1922 189.928 71.4395 187.971 71.4395C185.989 71.4395 184.084 71.1922 182.256 70.6847C180.429 70.1902 178.731 69.4745 177.15 68.5506C175.569 67.6267 174.144 66.5207 172.861 65.2324C171.578 63.9442 170.477 62.4998 169.556 60.9252C168.636 59.3377 167.924 57.633 167.418 55.7982C166.913 53.9635 166.641 52.0896 166.641 50.0987ZM178.459 50.0987C178.459 51.5301 178.68 52.8704 179.12 54.1196C179.561 55.3688 180.183 56.4489 180.999 57.3598C181.816 58.2707 182.788 58.9863 183.954 59.5199C185.107 60.0534 186.416 60.3136 187.855 60.3136C189.254 60.3136 190.524 60.0534 191.665 59.5199C192.805 58.9863 193.764 58.2707 194.554 57.3598C195.345 56.4489 195.954 55.3688 196.369 54.1196C196.796 52.8704 197.004 51.5301 197.004 50.0987C197.004 48.7064 196.796 47.3921 196.369 46.1298C195.954 44.8676 195.345 43.7615 194.554 42.8116C193.764 41.8617 192.805 41.107 191.665 40.5474C190.524 39.9879 189.267 39.7146 187.855 39.7146C186.403 39.7146 185.107 39.9879 183.954 40.5474C182.801 41.094 181.816 41.8487 180.999 42.8116C180.183 43.7746 179.561 44.8676 179.12 46.1298C178.68 47.3791 178.459 48.7064 178.459 50.0987Z" fill="#1E1D29"/>
<path d="M214.291 22.9673C214.291 22.2906 214.511 21.7961 214.952 21.4578C215.393 21.1195 216.028 20.8072 216.844 20.4949L224.205 17.9314C224.308 17.9053 224.412 17.8923 224.516 17.8923C224.619 17.8923 224.71 17.8923 224.788 17.8923C225.591 17.8923 226.123 18.1266 226.395 18.595C226.667 19.0635 226.797 19.6751 226.797 20.4298L226.758 29.3695H231.203C231.89 29.3695 232.46 29.5777 232.887 29.9941C233.315 30.4105 233.535 31.0221 233.535 31.8419V38.127C233.535 39.0379 233.315 39.7015 232.887 40.131C232.46 40.5604 231.89 40.7686 231.203 40.7686H226.758L226.797 68.2253C226.797 69.0451 226.563 69.6697 226.084 70.0991C225.604 70.5285 224.943 70.7367 224.114 70.7367H216.792C215.133 70.7367 214.291 69.9039 214.291 68.2383L214.265 40.7816H210.935C209.276 40.7816 208.434 39.9097 208.434 38.153V31.8679C208.434 30.2153 209.263 29.3955 210.935 29.3955H214.265L214.291 22.9673Z" fill="#1E1D29"/>
<path d="M234.832 46.6113C234.832 44.3081 235.13 42.1089 235.713 39.9879C236.296 37.8668 237.125 35.8889 238.214 34.0281C239.302 32.1673 240.585 30.4886 242.089 28.9662C243.592 27.4437 245.264 26.1554 247.091 25.0754C248.918 23.9953 250.901 23.1625 253.013 22.577C255.125 21.9784 257.316 21.6791 259.609 21.6791C261.877 21.6791 264.067 21.9784 266.192 22.577C268.305 23.1755 270.288 24.0083 272.128 25.0754C273.968 26.1554 275.64 27.4437 277.156 28.9662C278.672 30.4886 279.955 32.1673 281.031 34.0281C282.106 35.8759 282.936 37.8668 283.532 39.9879C284.128 42.1089 284.426 44.3081 284.426 46.6113C284.426 48.9145 284.128 51.1137 283.532 53.2347C282.936 55.3558 282.106 57.3207 281.031 59.1555C279.955 60.9903 278.672 62.6559 277.156 64.1654C275.64 65.6748 273.968 66.9631 272.128 68.0562C270.288 69.1362 268.318 69.969 266.192 70.5546C264.067 71.1402 261.877 71.4264 259.609 71.4264C257.316 71.4264 255.125 71.1402 253.013 70.5546C250.901 69.969 248.931 69.1362 247.091 68.0562C245.251 66.9761 243.579 65.6748 242.089 64.1654C240.585 62.6559 239.289 60.9903 238.214 59.1555C237.138 57.3207 236.296 55.3558 235.713 53.2347C235.13 51.1137 234.832 48.9145 234.832 46.6113ZM247.376 46.5853C247.376 48.381 247.674 50.0597 248.283 51.6342C248.892 53.2087 249.734 54.562 250.823 55.7202C251.912 56.8783 253.207 57.7892 254.685 58.4528C256.175 59.1165 257.808 59.4418 259.596 59.4418C261.385 59.4418 263.03 59.1165 264.534 58.4528C266.037 57.7892 267.333 56.8783 268.421 55.7202C269.51 54.562 270.352 53.1957 270.961 51.6342C271.57 50.0727 271.869 48.394 271.869 46.5853C271.869 44.8026 271.57 43.1369 270.961 41.5624C270.352 39.9879 269.51 38.6215 268.421 37.4504C267.333 36.2793 266.037 35.3554 264.534 34.6787C263.03 34.0021 261.385 33.6637 259.596 33.6637C257.808 33.6637 256.162 34.0021 254.685 34.6787C253.207 35.3554 251.912 36.2663 250.823 37.4504C249.734 38.6215 248.892 39.9879 248.283 41.5624C247.674 43.1239 247.376 44.8026 247.376 46.5853Z" fill="#1E1D29"/>
<path d="M282.002 69.4876C281.938 69.1883 281.989 68.889 282.171 68.5897C282.339 68.3034 282.495 68.0562 282.624 67.861L295.519 49.6173L283.311 32.1803C283.091 31.8941 282.909 31.5948 282.767 31.2695C282.611 30.9441 282.56 30.6448 282.585 30.3716C282.611 30.0983 282.754 29.8771 283.013 29.6819C283.259 29.4997 283.674 29.4086 284.257 29.4086H294.43C294.793 29.4086 295.117 29.5648 295.389 29.8771C295.661 30.1894 295.972 30.5928 296.309 31.1003L302.504 41.1461C302.918 40.5605 303.385 39.8188 303.929 38.9209C304.473 38.023 305.031 37.0861 305.601 36.1232C306.171 35.1602 306.728 34.2233 307.247 33.3124C307.765 32.4016 308.231 31.6338 308.62 30.9962C308.983 30.4366 309.333 30.0202 309.644 29.773C309.955 29.5258 310.331 29.3956 310.759 29.3956H321.022C321.281 29.3956 321.528 29.4477 321.748 29.5648C321.968 29.6819 322.15 29.825 322.279 30.0202C322.409 30.2154 322.461 30.4497 322.448 30.7099C322.422 30.9702 322.279 31.2564 322.02 31.5557L309.346 49.5132L321.955 67.2104C322.214 67.5747 322.435 67.9651 322.616 68.3815C322.797 68.7979 322.875 69.1753 322.862 69.5266C322.849 69.878 322.681 70.1643 322.396 70.3855C322.111 70.6067 321.618 70.7238 320.918 70.7238H310.422C309.45 70.7238 308.724 70.1643 308.257 69.0322L302.491 58.622L296.659 69.1623C296.426 69.6438 296.115 70.0211 295.752 70.3074C295.389 70.5937 295.026 70.7368 294.676 70.7368H283.402C283.104 70.7368 282.845 70.6718 282.624 70.5416C282.404 70.4115 282.223 70.1773 282.08 69.8259L282.002 69.4876Z" fill="#1E1D29"/>
<path d="M324.832 32.5316C324.483 31.6597 324.483 30.918 324.819 30.3064C325.156 29.6818 325.895 29.3825 327.035 29.3825H335.031C335.575 29.3825 336.016 29.5517 336.353 29.89C336.703 30.2283 336.962 30.6447 337.131 31.1392L346.306 57.3337L355.273 31.1392C355.507 30.4496 355.818 29.9811 356.18 29.7339C356.543 29.4996 357.049 29.3695 357.697 29.3695H366.016C366.625 29.3695 367.092 29.4476 367.442 29.6167C367.792 29.7859 368.025 29.9941 368.168 30.2674C368.31 30.5406 368.362 30.8399 368.31 31.1783C368.271 31.5166 368.181 31.8419 368.051 32.1672C367.235 34.2102 366.327 36.4354 365.355 38.8557C364.384 41.2761 363.373 43.7875 362.323 46.4031C361.273 49.0186 360.211 51.6732 359.135 54.3798C358.06 57.0865 356.997 59.728 355.973 62.3306C354.949 64.9331 353.964 67.4315 353.005 69.8258C352.046 72.2202 351.191 74.4193 350.401 76.4363C349.61 78.4402 348.923 80.2099 348.34 81.7194C347.757 83.2419 347.316 84.413 347.005 85.2328L347.109 85.0637C346.954 85.6492 346.681 86.1177 346.293 86.482C345.904 86.8464 345.424 87.0156 344.867 87.0156H337.377C336.405 87.0156 335.744 86.8204 335.381 86.443C335.018 86.0656 334.85 85.5061 334.85 84.7644C334.85 84.4781 334.889 84.2699 334.966 84.1137C335.044 83.9576 335.096 83.8665 335.148 83.8274L340.228 70.5545L324.832 32.5316Z" fill="#1E1D29"/>
<path d="M395.576 69.2924C395.731 68.863 395.822 68.3815 395.861 67.861C395.9 67.3405 395.926 66.794 395.926 66.2344C395.926 66.0392 395.926 65.8961 395.926 65.792C395.926 65.6879 395.926 65.6098 395.913 65.5448C395.9 65.4797 395.9 65.4016 395.9 65.2975C395.9 65.1934 395.9 65.0503 395.9 64.8551C395.278 65.5318 394.643 66.1954 393.995 66.846C393.347 67.4967 392.634 68.0822 391.844 68.5897C391.053 69.0972 390.159 69.5136 389.174 69.8259C388.176 70.1382 387.023 70.2944 385.714 70.2944C382.798 70.2944 380.103 69.7999 377.615 68.7979C375.127 67.796 372.975 66.4036 371.174 64.6209C369.36 62.8251 367.947 60.691 366.923 58.1926C365.913 55.6942 365.407 52.9485 365.407 49.9556C365.407 46.9887 365.913 44.204 366.923 41.6145C367.934 39.025 369.36 36.7608 371.174 34.8479C372.988 32.9221 375.14 31.4256 377.615 30.3195C380.103 29.2265 382.798 28.6799 385.714 28.6799C387.049 28.6799 388.267 28.8361 389.382 29.1354C390.483 29.4347 391.494 29.8511 392.414 30.3846C393.334 30.9181 394.163 31.5427 394.928 32.2584C395.68 32.9741 396.392 33.7288 397.04 34.5356L397.947 31.6338C398.077 31.2694 398.194 30.9311 398.31 30.6318C398.414 30.3325 398.557 30.0723 398.738 29.8641C398.906 29.6559 399.127 29.4997 399.399 29.3956C399.671 29.2915 400.021 29.2265 400.449 29.2265H405.282C405.58 29.2265 405.891 29.2785 406.189 29.3956C406.488 29.4997 406.773 29.6559 407.019 29.8511C407.265 30.0463 407.472 30.2935 407.615 30.6058C407.77 30.9051 407.835 31.2564 407.835 31.6468V64.764C407.835 68.1473 407.291 71.1662 406.189 73.8078C405.088 76.4494 403.585 78.6875 401.667 80.5093C399.762 82.3311 397.494 83.7234 394.876 84.6734C392.258 85.6233 389.459 86.1047 386.453 86.1047C385.286 86.1047 384.029 86.0006 382.695 85.7924C381.36 85.5842 380.025 85.2719 378.69 84.8685C377.356 84.4652 376.073 83.9316 374.841 83.294C373.597 82.6564 372.509 81.9147 371.55 81.0689C371.226 80.8346 370.954 80.5353 370.72 80.171C370.5 79.8066 370.384 79.4162 370.384 78.9868C370.384 78.4403 370.591 77.8677 370.993 77.2692L374.077 73.001C374.375 72.6757 374.66 72.4285 374.919 72.2723C375.178 72.1031 375.463 72.0251 375.762 72.0251C376.241 72.0251 376.837 72.2853 377.55 72.8058C378.094 73.3263 378.716 73.7427 379.416 74.055C380.116 74.3673 380.842 74.6146 381.58 74.8098C382.332 74.9919 383.057 75.1091 383.783 75.1611C384.509 75.2132 385.157 75.2392 385.74 75.2392C386.712 75.2392 387.723 75.1091 388.785 74.8488C389.848 74.5886 390.833 74.1982 391.753 73.6907C392.673 73.1832 393.477 72.5586 394.189 71.8169C394.837 71.0882 395.317 70.2423 395.576 69.2924ZM377.045 49.9686C377.045 51.426 377.265 52.7663 377.705 54.0156C378.146 55.2648 378.781 56.3448 379.597 57.2557C380.414 58.1666 381.412 58.8823 382.565 59.4028C383.718 59.9233 385.001 60.1836 386.401 60.1836C387.788 60.1836 389.083 59.9363 390.302 59.4548C391.52 58.9734 392.582 58.2837 393.49 57.4249C394.397 56.553 395.122 55.538 395.68 54.3669C396.224 53.1958 396.535 51.9205 396.6 50.5672V49.4872C396.535 48.1599 396.224 46.9107 395.68 45.7265C395.122 44.5423 394.397 43.5013 393.49 42.6035C392.582 41.7056 391.52 40.9899 390.302 40.4564C389.083 39.9229 387.775 39.6626 386.401 39.6626C385.001 39.6626 383.718 39.9359 382.565 40.4954C381.412 41.0419 380.427 41.7967 379.597 42.7206C378.781 43.6575 378.146 44.7506 377.705 46.0128C377.265 47.249 377.045 48.5763 377.045 49.9686Z" fill="#1E1D29"/>
<path d="M455.809 29.9812C456.094 29.7469 456.393 29.5908 456.704 29.5257C457.015 29.4607 457.313 29.4346 457.598 29.4346H462.483C462.872 29.4346 463.209 29.4997 463.494 29.6428C463.779 29.786 464.012 29.9682 464.207 30.2154C464.401 30.4496 464.557 30.7229 464.673 31.0222C464.79 31.3215 464.907 31.6338 465.01 31.9591L465.697 34.8089C466.021 34.1452 466.539 33.4425 467.265 32.7399C467.991 32.0242 468.885 31.3735 469.961 30.788C471.036 30.2024 472.267 29.7209 473.667 29.3436C475.067 28.9662 476.635 28.771 478.371 28.771C480.833 28.771 483.036 29.2525 484.967 30.2024C486.898 31.1523 488.544 32.4536 489.892 34.0932C491.239 35.7328 492.263 37.6586 492.976 39.8578C493.676 42.0569 494.026 44.3992 494.026 46.8976V68.2123C494.026 69.0321 493.844 69.6567 493.494 70.0862C493.132 70.5156 492.574 70.7238 491.797 70.7238H484.306C483.373 70.7238 482.738 70.5676 482.401 70.2553C482.051 69.943 481.883 69.3314 481.883 68.4205V47.2359C481.883 46.299 481.676 45.4142 481.248 44.5814C480.82 43.7486 480.276 43.0068 479.576 42.3692C478.889 41.7316 478.099 41.2241 477.231 40.8597C476.362 40.4954 475.468 40.3132 474.561 40.3132C473.784 40.3132 472.993 40.4824 472.177 40.8337C471.36 41.1851 470.622 41.6665 469.935 42.2781C469.261 42.8897 468.678 43.6184 468.224 44.4512C467.758 45.284 467.498 46.1949 467.434 47.1709V68.3164C467.434 68.6808 467.369 69.0582 467.226 69.4225C467.084 69.7869 466.876 70.0732 466.591 70.2683C466.306 70.4375 466.047 70.5546 465.801 70.6197C465.555 70.6847 465.269 70.7238 464.945 70.7238H457.624C456.691 70.7238 456.03 70.5026 455.615 70.0341C455.2 69.5787 455.006 68.9671 455.006 68.2123V31.829C455.006 31.4126 455.097 31.0352 455.278 30.6969C455.459 30.3455 455.719 30.0853 456.043 29.8901L455.809 29.9812Z" fill="#1E1D29"/>
<path d="M452.725 50.0987C452.622 52.6882 452.077 55.1736 451.092 57.5679C450.108 59.9492 448.682 62.0833 446.803 63.9701C444.717 66.0652 442.345 67.6788 439.727 68.7718C437.097 69.8779 434.414 70.4504 431.654 70.5025C428.894 70.5545 426.185 70.0731 423.529 69.0711C420.872 68.0561 418.462 66.4686 416.31 64.3085C414.963 62.9552 413.822 61.4847 412.902 59.8972C411.969 58.2966 411.256 56.657 410.764 54.9394C410.271 53.2347 409.986 51.478 409.922 49.6823C409.857 47.8865 410.038 46.1298 410.453 44.3861C410.868 42.6554 411.515 40.9768 412.397 39.3502C413.278 37.7236 414.418 36.2142 415.805 34.8218C417.075 33.5466 418.474 32.4795 419.991 31.6207C421.52 30.7619 423.114 30.1112 424.773 29.6818C426.431 29.2394 428.116 29.0182 429.853 29.0052C431.576 28.9922 433.261 29.1743 434.907 29.5647C436.552 29.9551 438.12 30.5537 439.611 31.3735C441.114 32.1803 442.462 33.2082 443.693 34.4314C444.483 35.2252 445.131 35.8889 445.611 36.4224C446.09 36.9559 446.375 37.4764 446.453 37.9839C446.531 38.4914 446.388 39.0639 446.013 39.6755C445.637 40.2871 444.963 41.0809 443.991 42.0438L427.494 58.6089C428.621 59.4417 429.749 59.9492 430.876 60.1444C432.004 60.3396 433.066 60.3266 434.064 60.0924C435.062 59.8712 435.995 59.4938 436.85 58.9733C437.706 58.4528 438.444 57.8802 439.053 57.2686C439.598 56.7221 440.116 56.0975 440.583 55.3948C441.049 54.6921 441.451 53.9764 441.814 53.2477C442.164 52.506 442.436 51.7903 442.643 51.0876C442.838 50.3849 442.941 49.7473 442.941 49.2008C442.993 48.7584 443.045 48.394 443.123 48.1207C443.2 47.8475 443.343 47.6133 443.537 47.405C443.732 47.2099 444.004 47.0667 444.354 47.0017C444.704 46.9366 445.131 46.8976 445.65 46.8976L450.833 47.2229C451.196 47.2489 451.481 47.327 451.689 47.4441C451.896 47.5612 452.077 47.7043 452.246 47.8735C452.557 48.1858 452.725 48.5241 452.79 48.9145C452.79 49.3049 452.777 49.6953 452.725 50.0987ZM422.621 41.9918C422.025 42.5904 421.572 43.2931 421.248 44.0868C420.924 44.8806 420.716 45.7264 420.626 46.6113C420.535 47.4961 420.548 48.394 420.665 49.2919C420.781 50.1898 420.976 51.0226 421.248 51.7903L432.95 40.0399C432.03 39.7666 431.136 39.5584 430.254 39.4283C429.373 39.2982 428.505 39.2852 427.637 39.3762C426.768 39.4803 425.926 39.7276 425.097 40.131C424.267 40.5474 423.438 41.172 422.621 41.9918Z" fill="#1E1D29"/>
<path d="M109.517 46.1429C109.517 71.6216 88.9381 92.2857 63.5642 92.2857C38.1903 92.2857 17.6113 71.6216 17.6113 46.1429C17.6113 20.6641 38.1903 0 63.5642 0C88.951 0 109.517 20.6641 109.517 46.1429ZM35.2745 46.1429C35.2745 61.8361 47.9356 74.5495 63.5642 74.5495C79.1929 74.5495 91.8539 61.8361 91.8539 46.1429C91.8539 30.4496 79.1929 17.7362 63.5642 17.7362C47.9356 17.7362 35.2745 30.4496 35.2745 46.1429Z" fill="#1E1D29"/>
<path d="M8.81217 92.2857C13.679 92.2857 17.6243 88.3241 17.6243 83.4371C17.6243 78.5502 13.679 74.5885 8.81217 74.5885C3.94534 74.5885 0 78.5502 0 83.4371C0 88.3241 3.94534 92.2857 8.81217 92.2857Z" fill="#1E1D29"/>
</g>
<defs>
<clipPath id="clip0_666_3046">
<rect width="494" height="92.2857" fill="white"/>
</clipPath>
</defs>
</svg>
